<svg width="25" height="24" viewBox="0 0 25 24" fill="none" xmlns="http://www.w3.org/2000/svg">
<path d="M3.12516 5V4C2.8489 4 2.58394 4.10536 2.38859 4.29289C2.19324 4.48043 2.0835 4.73478 2.0835 5H3.12516ZM21.8752 5H22.9168C22.9168 4.73478 22.8071 4.48043 22.6117 4.29289C22.4164 4.10536 22.1514 4 21.8752 4V5ZM3.12516 6H21.8752V4H3.12516V6ZM20.8335 5V17H22.9168V5H20.8335ZM19.7918 18H5.2085V20H19.7918V18ZM4.16683 17V5H2.0835V17H4.16683ZM5.2085 18C4.93223 18 4.66728 17.8946 4.47193 17.7071C4.27658 17.5196 4.16683 17.2652 4.16683 17H2.0835C2.0835 17.7956 2.41274 18.5587 2.99879 19.1213C3.58484 19.6839 4.37969 20 5.2085 20V18ZM20.8335 17C20.8335 17.2652 20.7238 17.5196 20.5284 17.7071C20.3331 17.8946 20.0681 18 19.7918 18V20C20.6206 20 21.4155 19.6839 22.0015 19.1213C22.5876 18.5587 22.9168 17.7956 22.9168 17H20.8335Z" fill="white"/>
<path d="M3.125 5L12.5 14L21.875 5" stroke="white" stroke-width="2" stroke-linecap="round" stroke-linejoin="round"/>
</svg>
