<svg width="190" height="30" viewBox="0 0 190 30" fill="none" xmlns="http://www.w3.org/2000/svg">
<path d="M27.5 11.55L18.5125 10.775L15 2.5L11.4875 10.7875L2.5 11.55L9.325 17.4625L7.275 26.25L15 21.5875L22.725 26.25L20.6875 17.4625L27.5 11.55ZM15 19.25L10.3 22.0875L11.55 16.7375L7.4 13.1375L12.875 12.6625L15 7.625L17.1375 12.675L22.6125 13.15L18.4625 16.75L19.7125 22.1L15 19.25Z" fill="#FFBF00"/>
<path d="M67.5 11.55L58.5125 10.775L55 2.5L51.4875 10.7875L42.5 11.55L49.325 17.4625L47.275 26.25L55 21.5875L62.725 26.25L60.6875 17.4625L67.5 11.55ZM55 19.25L50.3 22.0875L51.55 16.7375L47.4 13.1375L52.875 12.6625L55 7.625L57.1375 12.675L62.6125 13.15L58.4625 16.75L59.7125 22.1L55 19.25Z" fill="#FFBF00"/>
<path d="M107.5 11.55L98.5125 10.775L95 2.5L91.4875 10.7875L82.5 11.55L89.325 17.4625L87.275 26.25L95 21.5875L102.725 26.25L100.688 17.4625L107.5 11.55ZM95 19.25L90.3 22.0875L91.55 16.7375L87.4 13.1375L92.875 12.6625L95 7.625L97.1375 12.675L102.612 13.15L98.4625 16.75L99.7125 22.1L95 19.25Z" fill="#FFBF00"/>
<path d="M147.5 11.55L138.513 10.775L135 2.5L131.487 10.7875L122.5 11.55L129.325 17.4625L127.275 26.25L135 21.5875L142.725 26.25L140.688 17.4625L147.5 11.55ZM135 19.25L130.3 22.0875L131.55 16.7375L127.4 13.1375L132.875 12.6625L135 7.625L137.137 12.675L142.612 13.15L138.463 16.75L139.713 22.1L135 19.25Z" fill="#FFBF00"/>
<path d="M187.5 11.55L178.513 10.775L175 2.5L171.487 10.7875L162.5 11.55L169.325 17.4625L167.275 26.25L175 21.5875L182.725 26.25L180.688 17.4625L187.5 11.55ZM175 19.25L170.3 22.0875L171.55 16.7375L167.4 13.1375L172.875 12.6625L175 7.625L177.137 12.675L182.612 13.15L178.463 16.75L179.713 22.1L175 19.25Z" fill="#FFBF00"/>
</svg>
