<svg width="21" height="24" viewBox="0 0 21 24" fill="none" xmlns="http://www.w3.org/2000/svg">
<path d="M15.5835 12C18.8115 9.9525 20.9985 6.018 20.9985 1.5C20.9985 0.9915 20.97 0.492 20.9175 0H0.081004C0.0266564 0.498148 -0.000383857 0.998897 4.11596e-06 1.5C4.11596e-06 6.018 2.1855 9.9525 5.4135 12C2.1855 14.0475 4.11596e-06 17.982 4.11596e-06 22.5C4.11596e-06 23.0085 0.028504 23.508 0.081004 24H20.9175C20.9715 23.508 20.9985 23.0085 20.9985 22.5C20.9985 17.982 18.8115 14.0475 15.5835 12ZM2.2485 22.5C2.2485 18.1185 4.128 14.4045 7.49851 13.179V10.821C4.128 9.5955 2.2485 5.88 2.2485 1.5H18.7485C18.7485 5.8815 16.869 9.5955 13.4985 10.821V13.179C16.869 14.4045 18.7485 18.12 18.7485 22.5H2.2485ZM13.0215 15.693C11.3415 14.7405 11.25 13.5045 11.2485 12.7545V11.2485C11.2485 10.4985 11.337 9.258 13.0245 8.304C13.9275 7.7805 14.7075 6.984 15.2985 5.9985H5.6985C6.291 6.984 7.0725 7.7805 7.9755 8.3055C9.65551 9.258 9.74701 10.494 9.74851 11.244V12.75C9.74851 13.5 9.66001 14.7405 7.97251 15.6945C6.27 16.683 5.0025 18.6405 4.6185 21H16.377C15.993 18.639 14.724 16.6815 13.02 15.693H13.0215Z" fill="white"/>
</svg>
