<svg width="19" height="24" viewBox="0 0 19 24" fill="none" xmlns="http://www.w3.org/2000/svg">
<path d="M9.4283 13.7143C8.58066 13.7143 7.75206 13.4629 7.04728 12.992C6.3425 12.5211 5.79319 11.8517 5.46881 11.0686C5.14444 10.2855 5.05956 9.42378 5.22493 8.59244C5.39029 7.76109 5.79847 6.99745 6.39784 6.39808C6.99721 5.79871 7.76085 5.39054 8.59219 5.22517C9.42354 5.05981 10.2853 5.14468 11.0684 5.46905C11.8515 5.79343 12.5208 6.34274 12.9917 7.04752C13.4627 7.75231 13.714 8.5809 13.714 9.42854C13.7126 10.5648 13.2607 11.6541 12.4573 12.4575C11.6538 13.2609 10.5645 13.7129 9.4283 13.7143ZM9.4283 6.85711C8.91971 6.85711 8.42255 7.00792 7.99969 7.29047C7.57682 7.57303 7.24723 7.97463 7.0526 8.4445C6.85798 8.91436 6.80706 9.43139 6.90628 9.9302C7.00549 10.429 7.2504 10.8872 7.61002 11.2468C7.96964 11.6064 8.42783 11.8513 8.92663 11.9506C9.42544 12.0498 9.94247 11.9989 10.4123 11.8042C10.8822 11.6096 11.2838 11.28 11.5664 10.8571C11.8489 10.4343 11.9997 9.93712 11.9997 9.42854C11.999 8.74676 11.7279 8.0931 11.2458 7.61102C10.7637 7.12893 10.1101 6.85779 9.4283 6.85711Z" fill="white"/>
<path d="M9.42858 24L2.19772 15.4723C2.09725 15.3442 1.99782 15.2154 1.89944 15.0857C0.664279 13.4587 -0.00298388 11.4713 1.0031e-05 9.42857C1.0031e-05 6.92796 0.993375 4.52977 2.76157 2.76156C4.52978 0.993365 6.92797 0 9.42858 0C11.9292 0 14.3274 0.993365 16.0956 2.76156C17.8638 4.52977 18.8572 6.92796 18.8572 9.42857C18.8601 11.4704 18.1932 13.4568 16.9586 15.0831L16.9577 15.0857C16.9577 15.0857 16.7006 15.4234 16.662 15.4689L9.42858 24ZM3.26744 14.0529C3.26915 14.0529 3.46801 14.3169 3.51344 14.3734L9.42858 21.3497L15.3514 14.364C15.3892 14.3169 15.5897 14.0511 15.5906 14.0503C16.5996 12.721 17.1448 11.0975 17.1429 9.42857C17.1429 7.38262 16.3301 5.42046 14.8834 3.97375C13.4367 2.52704 11.4745 1.71429 9.42858 1.71429C7.38263 1.71429 5.42047 2.52704 3.97376 3.97375C2.52705 5.42046 1.7143 7.38262 1.7143 9.42857C1.7125 11.0985 2.25753 12.7229 3.26744 14.0529Z" fill="white"/>
</svg>
