<svg width="19" height="24" viewBox="0 0 19 24" fill="none" xmlns="http://www.w3.org/2000/svg">
<path d="M17.8472 16.1351L13.4306 13.6019L13.4184 13.5947C13.1892 13.4692 12.939 13.4188 12.6907 13.4481C12.4424 13.4775 12.2037 13.5856 11.9963 13.7627C11.9718 13.7833 11.9484 13.8058 11.9259 13.8299L9.64407 16.3199C8.19845 15.4211 6.70595 13.5251 6.00376 11.6987L7.95188 8.73344C7.97063 8.70344 7.98845 8.67344 8.00532 8.64104C8.14072 8.3762 8.22287 8.07262 8.24446 7.75732C8.26606 7.44202 8.22641 7.12477 8.12907 6.83382V6.81942L6.14438 1.15657C6.0157 0.776482 5.79444 0.45986 5.51362 0.253966C5.2328 0.0480719 4.9075 -0.0360501 4.58626 0.0141573C3.31592 0.228127 2.14986 1.02669 1.30588 2.26069C0.461903 3.4947 -0.00228837 5.07976 8.4831e-06 6.71982C8.4831e-06 16.2479 6.05626 24 13.5 24C14.7813 24.0029 16.0196 23.4088 16.9837 22.3285C17.9477 21.2481 18.5716 19.7556 18.7388 18.1295C18.7781 17.7185 18.7125 17.3022 18.5518 16.9428C18.3911 16.5833 18.144 16.3 17.8472 16.1351ZM13.5 22.08C10.3185 22.0755 7.26825 20.4558 5.01856 17.5762C2.76888 14.6966 1.50348 10.7922 1.50001 6.71982C1.49648 5.548 1.82631 4.41459 2.42789 3.53128C3.02947 2.64796 3.86167 2.07514 4.76907 1.91978C4.7687 1.92456 4.7687 1.92939 4.76907 1.93418L6.73782 7.57423L4.80001 10.5431C4.78034 10.572 4.76247 10.6029 4.74657 10.6355C4.60549 10.9126 4.52273 11.2316 4.5063 11.5617C4.48988 11.8918 4.54035 12.2217 4.65282 12.5195C5.5022 14.7431 7.25251 16.9667 9.00845 18.0527C9.24279 18.1954 9.50203 18.2577 9.76083 18.2337C10.0196 18.2098 10.2692 18.1003 10.485 17.9159C10.5091 17.8952 10.5322 17.8727 10.5544 17.8487L12.8334 15.3599L17.2397 17.8859H17.25C17.1301 19.0491 16.6833 20.1164 15.9931 20.8884C15.3028 21.6603 14.4166 22.0839 13.5 22.08Z" fill="white"/>
</svg>
